<?xml version="1.0" encoding="UTF-8" standalone="no"?>
<!DOCTYPE svg PUBLIC "-//W3C//DTD SVG 1.1//EN" "http://www.w3.org/Graphics/SVG/1.1/DTD/svg11.dtd">
<svg version="1.1" xmlns="http://www.w3.org/2000/svg" xmlns:xlink="http://www.w3.org/1999/xlink" preserveAspectRatio="xMidYMid meet" viewBox="0 0 640 640" width="320" height="320"><defs><path d="M337.36 114.05C344.17 113.42 350.29 111.53 350.29 109.01C350.29 98.3 389.07 98.93 410.16 109.64C440.78 126.65 437.38 115.31 406.08 94.52C378.19 76.88 346.21 73.1 327.16 86.33C312.19 96.41 318.99 115.31 337.36 114.05Z" id="c11wKPPg6M"></path><path d="M138.02 146.17C157.07 130.43 172.71 127.91 196.53 137.35C216.94 145.54 219.66 144.91 227.83 132.95C235.31 121.61 234.63 118.46 221.02 108.38C198.57 92 183.6 94.52 152.98 119.72C127.13 141.76 112.84 165.7 138.02 146.17Z" id="eJV5pCxsB"></path><path d="M343.49 173.89C338.05 193.42 331.24 204.13 324.44 204.13C318.99 204.13 316.27 206.01 318.99 208.53C321.72 211.05 343.49 212.31 367.98 211.68C392.48 210.42 423.09 213.57 436.02 217.98C452.35 223.02 461.19 223.65 466.64 218.61C471.4 214.2 463.23 205.39 439.42 189.01C420.37 176.41 404.72 162.55 404.72 158.77C404.04 154.36 397.24 142.39 388.39 132.95C387.35 131.77 382.13 125.89 372.74 115.31L362.54 129.8C353.47 148.27 347.12 162.97 343.49 173.89Z" id="bugBGeBXU"></path><path d="M91.75 270.27C91.75 279.08 97.87 275.3 114.88 257.04C137.34 233.1 138.7 232.47 179.52 234.36C205.37 234.99 221.02 233.1 221.02 228.69C221.02 224.91 227.14 223.65 236.67 226.17C249.6 229.32 250.28 229.32 240.07 221.76C233.95 217.35 223.06 210.42 216.26 206.01C205.37 199.09 205.37 198.46 216.26 201.61C235.31 207.9 229.87 199.09 207.41 188.38C182.92 177.04 189.04 176.41 154.34 192.16C125.09 206.01 91.75 246.96 91.75 270.27Z" id="a1OrvjE4TV"></path><path d="M338.73 264.6C344.85 266.49 350.29 272.16 350.29 277.19C350.29 281.6 359.14 291.68 370.7 299.24C381.59 306.8 393.84 321.92 397.92 332.63C398.42 333.93 400.91 340.44 405.4 352.15C411.53 341.57 414.93 335.69 415.61 334.52C421.05 325.07 423.77 314.99 421.73 311.84C420.37 308.69 423.09 298.61 428.53 288.53C433.3 279.08 436.02 268.38 433.98 265.23C431.94 262.08 436.7 261.45 445.54 263.97C455.75 267.12 459.15 266.49 456.43 261.45C453.71 257.67 455.75 254.52 460.51 254.52C465.27 254.52 460.51 248.85 448.95 241.92C438.06 234.99 425.81 229.32 421.73 229.32C418.33 229.95 423.77 234.36 433.98 239.4C444.86 245.07 451.67 250.74 449.63 253.26C446.9 255.15 441.46 253.26 437.38 249.48C432.62 245.07 417.65 241.92 402.68 241.92C387.03 241.92 378.19 239.4 380.91 235.62C387.71 224.91 375.47 229.32 350.97 245.07C331.92 257.67 329.88 260.82 338.73 264.6Z" id="e3LXU3y6qd"></path><path d="M204.01 258.3C190.95 261.32 183.69 263 182.24 263.34C152.3 269.64 121.69 292.31 133.93 299.24C140.74 303.02 140.06 306.17 129.17 313.73C116.92 321.92 120.33 321.92 154.34 314.36C246.88 294.83 270.01 248.22 187 249.48C185.42 249.48 177.48 249.48 163.19 249.48L183.6 253.89L204.01 258.3Z" id="aJDM0dyAb"></path><path d="M221.02 347.74C221.02 351.52 234.63 360.34 250.96 367.9C284.98 383.02 304.03 380.5 331.92 358.45C333.15 357.44 339.27 352.41 350.29 343.33C333.15 328.22 323.62 319.82 321.72 318.14C305.39 304.28 289.74 292.94 285.66 292.94C282.25 292.94 265.93 303.65 250.28 316.88C233.95 330.11 221.02 343.96 221.02 347.74Z" id="fvoFGsDUP"></path><path d="M374.79 396.25C334.64 398.14 298.58 400.66 295.86 402.55C292.46 404.44 262.52 406.96 229.19 408.22C195.85 409.48 164.55 412.62 159.79 415.14C155.71 417.66 145.5 413.88 136.66 406.33C112.84 385.54 101.96 389.95 120.33 412.62C129.17 423.33 143.46 444.75 152.98 459.87C169.31 486.95 209.46 522.23 239.39 536.72C255.04 544.91 329.2 545.54 357.1 538.61C365.94 536.09 387.03 519.08 404.04 500.18C420.37 481.28 439.42 463.02 446.22 459.87C453.71 456.72 459.15 450.42 459.15 445.38C459.15 435.93 491.13 405.7 500.65 405.7C504.06 405.7 506.78 400.03 506.78 393.1C506.78 383.02 502.02 380.5 484.33 380.5C472.08 380.5 458.47 383.65 455.07 386.8C450.99 390.58 414.93 394.36 374.79 396.25ZM314.23 446.01C283.62 448.53 251.64 451.68 243.47 454.2C231.91 456.72 227.83 454.83 227.83 447.9C227.83 434.04 235.31 430.89 282.94 427.74C306.07 425.85 327.16 423.33 328.52 421.44C335.32 415.14 376.83 418.29 381.59 425.22C389.07 436.56 372.74 441.6 314.23 446.01Z" id="bFupn4jK9"></path></defs><g><g><g><use xlink:href="#c11wKPPg6M" opacity="1" fill="#003200" fill-opacity="1"></use><g><use xlink:href="#c11wKPPg6M" opacity="1" fill-opacity="0" stroke="#000000" stroke-width="1" stroke-opacity="0"></use></g></g><g><use xlink:href="#eJV5pCxsB" opacity="1" fill="#033308" fill-opacity="1"></use><g><use xlink:href="#eJV5pCxsB" opacity="1" fill-opacity="0" stroke="#000000" stroke-width="1" stroke-opacity="0"></use></g></g><g><use xlink:href="#bugBGeBXU" opacity="1" fill="#000000" fill-opacity="1"></use><g><use xlink:href="#bugBGeBXU" opacity="1" fill-opacity="0" stroke="#000000" stroke-width="1" stroke-opacity="0"></use></g></g><g><use xlink:href="#a1OrvjE4TV" opacity="1" fill="#000000" fill-opacity="1"></use><g><use xlink:href="#a1OrvjE4TV" opacity="1" fill-opacity="0" stroke="#000000" stroke-width="1" stroke-opacity="0"></use></g></g><g><use xlink:href="#e3LXU3y6qd" opacity="1" fill="#000000" fill-opacity="1"></use><g><use xlink:href="#e3LXU3y6qd" opacity="1" fill-opacity="0" stroke="#000000" stroke-width="1" stroke-opacity="0"></use></g></g><g><use xlink:href="#aJDM0dyAb" opacity="1" fill="#000000" fill-opacity="1"></use><g><use xlink:href="#aJDM0dyAb" opacity="1" fill-opacity="0" stroke="#000000" stroke-width="1" stroke-opacity="0"></use></g></g><g><use xlink:href="#fvoFGsDUP" opacity="1" fill="#710000" fill-opacity="1"></use><g><use xlink:href="#fvoFGsDUP" opacity="1" fill-opacity="0" stroke="#000000" stroke-width="1" stroke-opacity="0"></use></g></g><g><use xlink:href="#bFupn4jK9" opacity="1" fill="#6f0000" fill-opacity="1"></use><g><use xlink:href="#bFupn4jK9" opacity="1" fill-opacity="0" stroke="#000000" stroke-width="1" stroke-opacity="0"></use></g></g></g></g></svg>