<?xml version="1.0" encoding="UTF-8" standalone="no"?>
<!DOCTYPE svg PUBLIC "-//W3C//DTD SVG 1.1//EN" "http://www.w3.org/Graphics/SVG/1.1/DTD/svg11.dtd">
<svg version="1.1" xmlns="http://www.w3.org/2000/svg" xmlns:xlink="http://www.w3.org/1999/xlink" preserveAspectRatio="xMidYMid meet" viewBox="120 0 320 320" width="320" height="320"><defs><path d="M192.78 102.44C194.89 102.25 196.79 101.68 196.79 100.92C196.79 97.67 208.8 97.87 215.34 101.11C224.83 106.26 223.77 102.83 214.07 96.53C205.43 91.19 195.52 90.04 189.62 94.05C184.98 97.1 187.09 102.83 192.78 102.44Z" id="dEJa6wsuJ"></path><path d="M131.01 112.18C136.92 107.41 141.76 106.64 149.14 109.5C155.47 111.99 156.31 111.79 158.84 108.17C161.16 104.73 160.95 103.78 156.73 100.73C149.78 95.77 145.14 96.53 135.65 104.16C127.64 110.84 123.21 118.09 131.01 112.18Z" id="h4xzCmwwvs"></path><path d="M194.68 120.57C192.99 126.49 190.88 129.73 188.78 129.73C187.09 129.73 186.25 130.3 187.09 131.07C187.93 131.83 194.68 132.21 202.27 132.02C209.86 131.64 219.34 132.59 223.35 133.93C228.41 135.46 231.15 135.65 232.84 134.12C234.31 132.78 231.78 130.11 224.4 125.15C218.5 121.34 213.65 117.14 213.65 115.99C213.44 114.66 211.33 111.03 208.59 108.17C208.27 107.81 206.65 106.03 203.74 102.83L200.58 107.22C197.77 112.81 195.8 117.26 194.68 120.57Z" id="czZqtvIKA"></path><path d="M116.68 149.77C116.68 152.44 118.57 151.29 123.84 145.76C130.8 138.51 131.22 138.32 143.87 138.89C151.88 139.08 156.73 138.51 156.73 137.17C156.73 136.03 158.63 135.65 161.58 136.41C165.59 137.36 165.8 137.36 162.64 135.07C160.74 133.74 157.36 131.64 155.26 130.3C151.88 128.2 151.88 128.01 155.26 128.97C161.16 130.88 159.47 128.2 152.52 124.96C144.93 121.53 146.82 121.34 136.07 126.11C127.01 130.3 116.68 142.71 116.68 149.77Z" id="axIpUY0e"></path><path d="M193.2 148.05C195.1 148.62 196.79 150.34 196.79 151.87C196.79 153.2 199.53 156.25 203.11 158.54C206.49 160.83 210.28 165.41 211.54 168.66C211.7 169.05 212.47 171.02 213.86 174.57C215.76 171.37 216.82 169.59 217.03 169.23C218.71 166.37 219.56 163.31 218.92 162.36C218.5 161.41 219.34 158.35 221.03 155.3C222.51 152.44 223.35 149.19 222.72 148.24C222.09 147.29 223.56 147.1 226.3 147.86C229.46 148.81 230.52 148.62 229.68 147.1C228.83 145.95 229.46 145 230.94 145C232.42 145 230.94 143.28 227.36 141.18C223.98 139.08 220.19 137.36 218.92 137.36C217.87 137.55 219.56 138.89 222.72 140.42C226.09 142.13 228.2 143.85 227.57 144.62C226.72 145.19 225.04 144.62 223.77 143.47C222.3 142.13 217.66 141.18 213.02 141.18C208.17 141.18 205.43 140.42 206.27 139.27C208.38 136.03 204.59 137.36 197 142.13C191.1 145.95 190.46 146.9 193.2 148.05Z" id="fwzdvGwKc"></path><path d="M151.46 146.14C147.41 147.06 145.17 147.57 144.72 147.67C135.44 149.58 125.95 156.45 129.75 158.54C131.86 159.69 131.64 160.64 128.27 162.93C124.48 165.41 125.53 165.41 136.07 163.12C164.74 157.21 171.91 143.09 146.19 143.47C145.7 143.47 143.24 143.47 138.81 143.47L145.14 144.81L151.46 146.14Z" id="cZ6XRBWzN"></path><path d="M156.73 173.24C156.73 174.38 160.95 177.05 166.01 179.34C176.55 183.92 182.45 183.16 191.1 176.48C191.47 176.18 193.37 174.65 196.79 171.9C191.47 167.32 188.52 164.78 187.93 164.27C182.87 160.07 178.02 156.64 176.76 156.64C175.71 156.64 170.65 159.88 165.8 163.89C160.74 167.89 156.73 172.09 156.73 173.24Z" id="bYU6ovWhy"></path><path d="M204.38 187.93C191.94 188.5 180.77 189.27 179.92 189.84C178.87 190.41 169.59 191.17 159.26 191.56C148.93 191.94 139.23 192.89 137.76 193.65C136.49 194.42 133.33 193.27 130.59 190.98C123.21 184.69 119.84 186.02 125.53 192.89C128.27 196.14 132.7 202.62 135.65 207.2C140.71 215.41 153.15 226.09 162.42 230.48C167.27 232.96 190.25 233.15 198.9 231.05C201.64 230.29 208.17 225.14 213.44 219.41C218.5 213.69 224.4 208.16 226.51 207.2C228.83 206.25 230.52 204.34 230.52 202.81C230.52 199.95 240.43 190.79 243.38 190.79C244.43 190.79 245.28 189.08 245.28 186.98C245.28 183.92 243.8 183.16 238.32 183.16C234.52 183.16 230.31 184.11 229.25 185.07C227.99 186.21 216.82 187.36 204.38 187.93ZM185.61 203C176.13 203.77 166.22 204.72 163.69 205.49C160.11 206.25 158.84 205.68 158.84 203.58C158.84 199.38 161.16 198.43 175.92 197.47C183.08 196.9 189.62 196.14 190.04 195.56C192.15 193.65 205.01 194.61 206.49 196.71C208.8 200.14 203.74 201.67 185.61 203Z" id="d8R33emFH"></path></defs><g><g><g><use xlink:href="#dEJa6wsuJ" opacity="1" fill="#80d780" fill-opacity="1"></use><g><use xlink:href="#dEJa6wsuJ" opacity="1" fill-opacity="0" stroke="#000000" stroke-width="1" stroke-opacity="0"></use></g></g><g><use xlink:href="#h4xzCmwwvs" opacity="1" fill="#82dd97" fill-opacity="1"></use><g><use xlink:href="#h4xzCmwwvs" opacity="1" fill-opacity="0" stroke="#000000" stroke-width="1" stroke-opacity="0"></use></g></g><g><use xlink:href="#czZqtvIKA" opacity="1" fill="#f9f9f9" fill-opacity="1"></use><g><use xlink:href="#czZqtvIKA" opacity="1" fill-opacity="0" stroke="#000000" stroke-width="1" stroke-opacity="0"></use></g></g><g><use xlink:href="#axIpUY0e" opacity="1" fill="#fcfcfc" fill-opacity="1"></use><g><use xlink:href="#axIpUY0e" opacity="1" fill-opacity="0" stroke="#000000" stroke-width="1" stroke-opacity="0"></use></g></g><g><use xlink:href="#fwzdvGwKc" opacity="1" fill="#fffcfc" fill-opacity="1"></use><g><use xlink:href="#fwzdvGwKc" opacity="1" fill-opacity="0" stroke="#000000" stroke-width="1" stroke-opacity="0"></use></g></g><g><use xlink:href="#cZ6XRBWzN" opacity="1" fill="#ffffff" fill-opacity="1"></use><g><use xlink:href="#cZ6XRBWzN" opacity="1" fill-opacity="0" stroke="#000000" stroke-width="1" stroke-opacity="0"></use></g></g><g><use xlink:href="#bYU6ovWhy" opacity="1" fill="#d44646" fill-opacity="1"></use><g><use xlink:href="#bYU6ovWhy" opacity="1" fill-opacity="0" stroke="#000000" stroke-width="1" stroke-opacity="0"></use></g></g><g><use xlink:href="#d8R33emFH" opacity="1" fill="#e75252" fill-opacity="1"></use><g><use xlink:href="#d8R33emFH" opacity="1" fill-opacity="0" stroke="#000000" stroke-width="1" stroke-opacity="0"></use></g></g></g></g></svg>